# Blender v3.2.2 OBJ File: ''
# www.blender.org
mtllib fighter_smooth.mtl
o Plane
v 0.000000 -0.000000 1.132954
v 0.200000 0.100000 2.132954
v 0.000000 0.100000 2.132954
v 0.000000 0.000000 -0.467046
v 0.500000 0.200000 0.132954
v 0.000000 -0.000000 0.232954
v 0.300000 0.100000 -1.867046
v 0.000000 0.100000 -1.567046
v 0.700000 0.100000 0.732954
v 0.200000 0.300000 1.132954
v 0.000000 0.400000 1.432954
v 0.000000 0.200000 1.832954
v 0.700000 0.300000 -0.367046
v 1.500000 0.000000 -0.267046
v 1.400000 0.100000 -0.267046
v 0.500000 0.300000 -1.867046
v 0.600000 0.200000 -1.567046
v 0.100000 0.300000 -1.867046
v 0.000000 0.300000 -1.667046
v 0.000000 0.400000 0.632954
v 0.600000 0.200000 -0.467046
v 1.700000 -0.000000 0.232954
v 1.400000 -0.000000 0.232954
v 0.000000 0.500000 -0.367046
v 0.500000 0.600000 -0.367046
v 0.000000 0.400000 -1.667046
v 0.600000 0.300000 -1.567046
v 0.400000 0.500000 -1.567046
v 0.500000 0.600000 -0.967046
v 0.600000 0.900000 -1.267046
v 0.300000 0.500000 -1.567046
v 0.400000 0.600000 -0.967046
v 0.000000 0.500000 -0.967046
v 0.600000 0.900000 -1.567046
v 0.300000 0.500000 -1.867046
v 2.000000 0.000000 -0.667046
v -0.200000 0.100000 2.132954
v -0.500000 0.200000 0.132954
v -0.300000 0.100000 -1.867046
v -0.700000 0.100000 0.732954
v -0.200000 0.300000 1.132954
v -0.700000 0.300000 -0.367046
v -1.400000 0.100000 -0.267046
v -1.500000 0.000000 -0.267046
v -0.500000 0.300000 -1.867046
v -0.600000 0.200000 -1.567046
v -0.100000 0.300000 -1.867046
v -0.600000 0.200000 -0.467046
v -1.400000 -0.000000 0.232954
v -1.700000 -0.000000 0.232954
v -0.500000 0.600000 -0.367046
v -0.600000 0.300000 -1.567046
v -0.400000 0.500000 -1.567046
v -0.500000 0.600000 -0.967046
v -0.600000 0.900000 -1.267046
v -0.400000 0.600000 -0.967046
v -0.300000 0.500000 -1.567046
v -0.600000 0.900000 -1.567046
v -0.300000 0.500000 -1.867046
v -2.000000 0.000000 -0.667046
vt 0.375000 0.257812
vt 0.320312 0.000000
vt 0.375000 0.000000
vt 0.375000 0.625000
vt 0.250000 0.507812
vt 0.375000 0.476562
vt 0.296875 1.000000
vt 0.375000 0.921875
vt 0.187500 0.351562
vt 0.054688 0.250000
vt 0.000000 0.171875
vt 0.000000 0.070312
vt 1.000000 0.718750
vt 0.804688 0.695312
vt 0.835938 0.687500
vt 0.187500 1.000000
vt 0.187500 0.921875
vt 0.375000 1.000000
vt 0.367188 0.945312
vt 0.000000 0.375000
vt 0.054688 0.000000
vt 0.000000 0.000000
vt 0.190430 0.626343
vt 0.187500 0.625000
vt 0.765625 0.562500
vt 0.835938 0.562500
vt 1.000000 0.718750
vt 1.000000 1.000000
vt 0.125000 0.500000
vt 0.000000 0.625000
vt 0.562500 0.312500
vt 0.500000 0.375000
vt 0.375000 0.312500
vt 0.000000 0.921875
vt 0.000000 1.000000
vt 0.006592 0.945312
vt 0.187500 0.921875
vt 0.101562 0.921875
vt 0.125000 0.781250
vt 0.125000 0.625000
vt 0.468750 0.492188
vt 0.375000 0.562500
vt 0.375000 0.398438
vt 0.101562 0.781250
vt 0.000000 0.781250
vt 0.468750 0.562500
vt 0.375000 0.554688
vt 0.376846 0.394439
vt 0.078125 1.000000
vt 0.695312 0.796875
vt 0.539062 0.687500
vt 0.609375 0.562500
vt 0.679688 0.796875
vt 0.194336 0.921875
vt 0.078125 0.921875
vt 0.562500 0.500000
vt 0.687500 0.500000
vt 0.625000 0.562500
vt 0.625000 0.437500
vt 0.187500 0.625000
vt 0.562500 0.562500
vt 0.562500 0.398438
vt 0.998770 0.982159
vt 1.000000 1.000000
vt 0.375000 1.000000
vt 0.539062 0.562500
vt 1.000923 0.727978
vt 0.375000 0.718750
vt 0.320312 0.000000
vt 0.250000 0.507812
vt 0.296875 1.000000
vt 0.187500 0.351562
vt 0.054688 0.250000
vt 1.000000 0.718750
vt 0.835938 0.687500
vt 0.804688 0.695312
vt 0.187500 1.000000
vt 0.187500 0.921875
vt 0.375000 1.000000
vt 0.054688 0.000000
vt 0.190186 0.625977
vt 0.187500 0.625000
vt 0.835938 0.562500
vt 0.765625 0.562500
vt 1.000000 1.000000
vt 1.000000 0.718750
vt 0.125000 0.500000
vt 0.562500 0.312500
vt 0.500000 0.375000
vt 0.006592 0.946289
vt 0.000000 1.000000
vt 0.187500 0.921875
vt 0.101562 0.921875
vt 0.187500 0.625000
vt 0.125000 0.625000
vt 0.125000 0.781250
vt 0.468750 0.492188
vt 0.375000 0.398438
vt 0.375000 0.562500
vt 0.101562 0.781250
vt 0.468750 0.562500
vt 0.375000 0.554688
vt 0.376846 0.393824
vt 0.078125 1.000000
vt 0.695312 0.796875
vt 0.539062 0.687500
vt 0.679688 0.796875
vt 0.609375 0.562500
vt 0.192139 0.921875
vt 0.078125 0.921875
vt 0.562500 0.500000
vt 0.625000 0.562500
vt 0.687500 0.500000
vt 0.625000 0.437500
vt 0.562500 0.562500
vt 0.562500 0.398438
vt 0.998154 0.987081
vt 0.375000 1.000000
vt 0.539062 0.562500
vt 0.999612 0.733089
vt 0.375000 0.718750
vn -0.0000 -0.9970 0.0771
vn 0.5867 -0.4389 0.6806
vn 0.0000 -0.7111 0.7031
vn 0.1891 -0.9820 -0.0040
vn 0.7369 -0.6734 0.0591
vn 0.1893 -0.9808 -0.0461
vn -0.0074 -0.9433 -0.3319
vn -0.0452 -0.9978 -0.0491
vn -0.0464 -0.9474 -0.3166
vn 0.0709 -0.9964 -0.0454
vn 0.7224 -0.6914 0.0096
vn 0.0709 -0.9971 0.0274
vn 0.6196 0.7519 0.2252
vn 0.4111 0.8698 0.2727
vn 0.4092 0.8500 0.3318
vn 0.2231 0.0851 0.9711
vn -0.2606 -0.6515 0.7125
vn -0.1708 0.4881 0.8559
vn 0.7252 -0.2620 -0.6368
vn 0.5538 -0.7445 -0.3728
vn 0.3755 -0.7719 -0.5130
vn -0.7534 -0.1353 -0.6435
vn -0.5189 -0.6355 -0.5718
vn -0.5080 -0.2665 -0.8191
vn 0.8597 0.5101 0.0249
vn 0.1994 0.9794 0.0327
vn 0.4292 0.8992 0.0852
vn 0.3201 0.8117 0.4885
vn -0.0000 0.9503 0.3113
vn -0.0000 0.5388 0.8424
vn 0.4183 0.8076 0.4157
vn 0.3327 0.9278 0.1691
vn 0.0968 0.9631 0.2510
vn 0.8340 -0.5404 0.1116
vn 0.4274 -0.8876 0.1718
vn 0.7943 -0.2669 0.5458
vn 0.7020 -0.3930 0.5939
vn 0.0885 -0.9943 0.0590
vn 0.7343 -0.6771 0.0489
vn -0.1305 -0.9823 0.1348
vn 0.4079 -0.7513 0.5187
vn -0.3759 -0.9262 0.0301
vn 0.2308 0.9677 0.1012
vn 0.4577 0.8863 0.0712
vn 0.2298 0.9730 0.0198
vn -0.2388 -0.9618 0.1336
vn -0.0200 -0.9932 0.1149
vn 0.1293 -0.9773 -0.1680
vn 0.4736 0.8666 0.1570
vn 0.5564 0.7319 0.3934
vn 0.8831 0.4556 0.1118
vn 0.9095 0.3958 0.1271
vn 0.2306 0.9460 0.2280
vn 0.2289 0.9712 0.0656
vn 0.3127 0.1832 0.9320
vn 0.1369 0.5454 0.8269
vn -0.0000 0.5695 0.8220
vn -0.5884 0.6169 -0.5227
vn -0.7621 -0.0225 -0.6471
vn -0.5281 -0.1415 -0.8373
vn 0.7025 0.6636 -0.2571
vn 0.7277 0.4580 -0.5105
vn 0.7551 0.5817 -0.3025
vn 0.7732 0.4897 0.4029
vn 0.7889 0.6136 0.0353
vn 0.5759 0.7927 0.2000
vn -0.3951 0.8535 0.3398
vn -0.6610 0.7442 -0.0966
vn -0.5766 0.8145 0.0641
vn -0.1394 0.9894 0.0416
vn 0.1161 0.9752 0.1884
vn 0.4054 0.9133 0.0385
vn 0.1327 0.9370 0.3232
vn 0.8509 0.4464 0.2767
vn 0.4613 0.6882 0.5599
vn -0.2597 0.9653 -0.0276
vn -0.1217 0.9617 -0.2454
vn -0.1211 0.9871 -0.1049
vn 0.7228 0.6863 -0.0805
vn 0.0467 0.0755 -0.9961
vn 0.4870 0.2797 -0.8274
vn -0.2962 0.5473 -0.7827
vn 0.4244 0.7883 0.4456
vn 0.0793 0.7789 0.6221
vn -0.1481 0.8936 0.4237
vn -0.6164 0.2828 -0.7349
vn -0.3093 0.8118 -0.4954
vn -0.3320 0.7594 -0.5595
vn 0.4998 -0.7174 -0.4854
vn 0.0718 0.9750 0.2105
vn 0.5655 0.5823 0.5842
vn 0.6321 0.6460 -0.4279
vn 0.8028 -0.4763 -0.3585
vn 0.8383 0.0862 -0.5384
vn 0.8849 0.3392 -0.3193
vn -0.1936 0.9474 -0.2548
vn -0.1627 0.9704 -0.1786
vn -0.3940 0.9120 -0.1138
vn 0.3609 0.0897 -0.9283
vn -0.3079 -0.0230 -0.9512
vn -0.0322 0.5043 -0.8629
vn 0.0431 -0.4718 -0.8806
vn 0.3459 0.8521 -0.3929
vn -0.3048 -0.7538 -0.5821
vn -0.6078 -0.3246 -0.7247
vn -0.2677 -0.7519 -0.6025
vn 0.1602 -0.9871 -0.0040
vn 0.3927 -0.9060 -0.1582
vn 0.2492 -0.9618 0.1129
vn 0.9658 0.0395 -0.2561
vn 0.8645 0.3576 0.3531
vn 0.9864 0.1643 -0.0100
vn 0.2060 -0.9348 -0.2894
vn 0.6331 -0.0147 -0.7740
vn 0.5740 -0.4799 -0.6635
vn 0.6967 0.3538 -0.6241
vn 0.4827 0.8657 -0.1329
vn 0.0609 0.9792 0.1933
vn 0.6152 0.6478 -0.4494
vn -0.7016 -0.7113 -0.0423
vn -0.9266 0.2855 0.2449
vn -0.5050 -0.8606 0.0659
vn 0.4278 0.5943 0.6810
vn -0.0342 0.9621 0.2706
vn -0.8854 0.3369 0.3203
vn 0.0158 0.9780 0.2080
vn -0.2362 0.9700 0.0576
vn -0.0998 0.9756 0.1954
vn -0.1241 0.9758 0.1798
vn -0.2595 0.9649 0.0412
vn -0.1223 0.9919 -0.0358
vn 0.8153 0.5497 -0.1819
vn 0.8259 0.5638 -0.0020
vn 0.8200 0.4378 0.3686
vn 0.1979 -0.9565 -0.2145
vn 0.4424 -0.7078 -0.5507
vn -0.1710 -0.9816 0.0851
vn -0.1426 0.9618 -0.2337
vn -0.2795 0.9600 -0.0150
vn -0.3747 0.9114 -0.1699
vn 0.7154 -0.6930 0.0896
vn 0.1600 -0.9868 0.0227
vn 0.2484 -0.9586 0.1391
vn 0.7829 -0.6050 -0.1448
vn 0.1598 -0.9712 -0.1767
vn 0.7246 -0.6837 -0.0862
vn 0.9001 0.4270 0.0866
vn -0.6508 0.7503 -0.1160
vn -0.3875 0.8658 0.3167
vn -0.4961 0.5264 -0.6905
vn 0.4712 0.8552 -0.2159
vn -0.0287 0.9670 -0.2530
vn -0.2407 0.9635 -0.1169
vn 0.8493 0.3142 0.4243
vn 0.9772 0.0090 -0.2122
vn 0.6927 -0.2083 -0.6905
vn -0.2924 -0.7678 0.5701
vn 0.1833 -0.1087 0.9770
vn -0.0641 -0.8175 0.5724
vn 0.1083 0.9803 0.1653
vn 0.5209 0.8382 -0.1613
vn 0.5015 0.7585 0.4161
vn -0.5867 -0.4389 0.6806
vn -0.1891 -0.9820 -0.0040
vn -0.1893 -0.9808 -0.0461
vn -0.7369 -0.6734 0.0591
vn 0.0074 -0.9433 -0.3319
vn 0.0464 -0.9474 -0.3166
vn 0.0452 -0.9978 -0.0491
vn -0.0709 -0.9964 -0.0454
vn -0.0709 -0.9971 0.0274
vn -0.7224 -0.6914 0.0096
vn -0.6196 0.7519 0.2252
vn -0.4092 0.8500 0.3318
vn -0.4111 0.8698 0.2727
vn -0.2231 0.0851 0.9711
vn 0.1708 0.4881 0.8559
vn 0.2606 -0.6515 0.7125
vn -0.7252 -0.2620 -0.6368
vn -0.3755 -0.7719 -0.5130
vn -0.5538 -0.7445 -0.3728
vn 0.7534 -0.1353 -0.6435
vn 0.5080 -0.2665 -0.8191
vn 0.5189 -0.6355 -0.5718
vn -0.8597 0.5101 0.0249
vn -0.4292 0.8992 0.0852
vn -0.1994 0.9794 0.0327
vn -0.3201 0.8117 0.4885
vn -0.4183 0.8076 0.4157
vn -0.0968 0.9631 0.2510
vn -0.3327 0.9278 0.1691
vn -0.8340 -0.5404 0.1116
vn -0.7943 -0.2669 0.5458
vn -0.4274 -0.8876 0.1718
vn -0.7020 -0.3930 0.5939
vn -0.7343 -0.6771 0.0489
vn -0.0885 -0.9943 0.0590
vn 0.1305 -0.9823 0.1348
vn 0.3759 -0.9262 0.0301
vn -0.4079 -0.7513 0.5187
vn -0.2308 0.9677 0.1012
vn -0.2298 0.9730 0.0198
vn -0.4577 0.8863 0.0712
vn 0.2388 -0.9618 0.1336
vn -0.1293 -0.9773 -0.1680
vn 0.0200 -0.9932 0.1149
vn -0.4736 0.8666 0.1570
vn -0.8831 0.4556 0.1118
vn -0.5564 0.7319 0.3934
vn -0.9095 0.3958 0.1271
vn -0.2289 0.9712 0.0656
vn -0.2306 0.9460 0.2280
vn -0.3127 0.1832 0.9320
vn -0.1369 0.5454 0.8269
vn 0.5884 0.6169 -0.5227
vn 0.5281 -0.1415 -0.8373
vn 0.7621 -0.0225 -0.6471
vn -0.7025 0.6636 -0.2571
vn -0.7551 0.5817 -0.3025
vn -0.7277 0.4580 -0.5105
vn -0.7732 0.4897 0.4029
vn -0.5759 0.7927 0.2000
vn -0.7889 0.6136 0.0353
vn 0.3951 0.8535 0.3398
vn 0.5766 0.8145 0.0641
vn 0.6610 0.7442 -0.0966
vn 0.1394 0.9894 0.0416
vn -0.4054 0.9133 0.0385
vn -0.1161 0.9752 0.1884
vn -0.1327 0.9370 0.3232
vn -0.4613 0.6882 0.5599
vn -0.8509 0.4464 0.2767
vn 0.2597 0.9653 -0.0276
vn 0.1211 0.9871 -0.1049
vn 0.1217 0.9617 -0.2454
vn -0.7228 0.6863 -0.0805
vn -0.0467 0.0755 -0.9961
vn 0.2962 0.5473 -0.7827
vn -0.4870 0.2797 -0.8274
vn -0.4244 0.7883 0.4456
vn 0.1481 0.8936 0.4237
vn -0.0793 0.7789 0.6221
vn 0.6164 0.2828 -0.7349
vn 0.3320 0.7594 -0.5595
vn 0.3093 0.8118 -0.4954
vn -0.4998 -0.7174 -0.4854
vn -0.0718 0.9750 0.2105
vn -0.6321 0.6460 -0.4279
vn -0.5655 0.5823 0.5842
vn -0.8028 -0.4763 -0.3585
vn -0.8849 0.3392 -0.3193
vn -0.8383 0.0862 -0.5384
vn 0.1936 0.9474 -0.2548
vn 0.3940 0.9120 -0.1138
vn 0.1627 0.9704 -0.1786
vn -0.3609 0.0897 -0.9283
vn 0.0322 0.5043 -0.8629
vn 0.3079 -0.0230 -0.9512
vn -0.0431 -0.4718 -0.8806
vn -0.3459 0.8521 -0.3929
vn 0.3048 -0.7538 -0.5821
vn 0.2677 -0.7519 -0.6025
vn 0.6078 -0.3246 -0.7247
vn -0.1602 -0.9871 -0.0040
vn -0.2492 -0.9618 0.1129
vn -0.3927 -0.9060 -0.1582
vn -0.9658 0.0395 -0.2561
vn -0.9864 0.1643 -0.0100
vn -0.8645 0.3576 0.3531
vn -0.2060 -0.9348 -0.2894
vn -0.6331 -0.0147 -0.7740
vn -0.6967 0.3538 -0.6241
vn -0.5740 -0.4799 -0.6635
vn -0.4827 0.8657 -0.1329
vn -0.6152 0.6478 -0.4494
vn -0.0609 0.9792 0.1933
vn 0.7016 -0.7113 -0.0423
vn 0.5050 -0.8606 0.0659
vn 0.9266 0.2855 0.2449
vn -0.4278 0.5943 0.6810
vn 0.8854 0.3369 0.3203
vn 0.0342 0.9621 0.2706
vn -0.0158 0.9780 0.2080
vn 0.0998 0.9756 0.1954
vn 0.2362 0.9700 0.0576
vn 0.1241 0.9758 0.1798
vn 0.1223 0.9919 -0.0358
vn 0.2595 0.9649 0.0412
vn -0.8153 0.5497 -0.1819
vn -0.8200 0.4378 0.3686
vn -0.8259 0.5638 -0.0020
vn -0.1979 -0.9565 -0.2145
vn 0.1710 -0.9816 0.0851
vn -0.4424 -0.7078 -0.5507
vn 0.1426 0.9618 -0.2337
vn 0.3747 0.9114 -0.1699
vn 0.2795 0.9600 -0.0150
vn -0.7154 -0.6930 0.0896
vn -0.2484 -0.9586 0.1391
vn -0.1600 -0.9868 0.0227
vn -0.7829 -0.6050 -0.1448
vn -0.7246 -0.6837 -0.0862
vn -0.1598 -0.9712 -0.1767
vn -0.9001 0.4270 0.0866
vn 0.6508 0.7503 -0.1160
vn 0.4961 0.5264 -0.6905
vn 0.3875 0.8658 0.3167
vn -0.4712 0.8552 -0.2159
vn 0.2407 0.9635 -0.1169
vn 0.0287 0.9670 -0.2530
vn -0.8493 0.3142 0.4243
vn -0.6927 -0.2083 -0.6905
vn -0.9772 0.0090 -0.2122
vn 0.2924 -0.7678 0.5701
vn 0.0641 -0.8175 0.5724
vn -0.1833 -0.1087 0.9770
vn -0.1083 0.9803 0.1653
vn -0.5015 0.7585 0.4161
vn -0.5209 0.8382 -0.1613
usemtl Material.002
s 1
f 1/1/1 2/2/2 3/3/3
f 4/4/4 5/5/5 6/6/6
f 7/7/7 4/4/8 8/8/9
f 6/6/10 9/9/11 1/1/12
f 10/10/13 11/11/14 12/12/15
f 13/13/16 14/14/17 15/15/18
f 16/16/19 17/17/20 7/7/21
f 18/18/22 8/8/23 19/19/24
f 9/9/25 20/20/26 10/10/27
f 2/21/28 12/12/29 3/22/30
f 2/21/31 10/10/32 12/12/33
f 5/5/34 21/23/35 13/24/36
f 2/2/37 1/1/38 9/9/39
f 14/14/40 22/25/41 23/26/42
f 11/11/43 10/10/44 20/20/45
f 14/14/46 21/27/47 17/28/48
f 10/10/49 2/21/50 9/9/51
f 5/29/52 24/30/53 20/20/54
f 13/31/55 25/32/56 24/33/57
f 26/34/58 18/35/59 19/36/60
f 27/37/61 16/16/62 28/38/63
f 13/24/64 29/39/65 25/40/66
f 30/41/67 31/42/68 32/43/69
f 32/44/70 25/40/71 29/39/72
f 24/30/73 5/29/74 13/24/75
f 32/44/76 26/34/77 33/45/78
f 29/39/79 27/37/61 28/38/63
f 34/46/80 28/47/81 31/42/82
f 29/48/83 30/41/84 32/43/85
f 18/35/86 26/34/87 35/49/88
f 22/25/41 14/14/40 36/50/89
f 15/51/90 22/52/91 36/53/92
f 17/17/93 16/16/94 27/54/95
f 35/49/96 26/34/97 31/55/98
f 16/56/99 18/57/100 35/58/101
f 18/57/100 16/56/99 7/59/102
f 35/49/103 28/38/63 16/16/62
f 8/8/104 18/18/105 7/7/106
f 4/4/107 17/17/108 21/60/109
f 28/61/110 30/41/111 29/62/112
f 4/4/107 7/7/113 17/17/108
f 36/50/114 17/63/115 27/64/116
f 27/65/117 15/51/118 36/53/119
f 23/26/120 15/15/121 14/14/122
f 22/52/123 15/51/124 23/66/125
f 25/40/126 32/44/127 24/30/128
f 24/30/129 32/44/130 33/45/131
f 27/37/132 29/39/133 13/24/134
f 17/28/135 36/50/136 14/14/137
f 26/34/138 32/44/139 31/55/140
f 5/5/141 4/4/142 21/60/143
f 9/9/144 6/6/145 5/5/146
f 20/20/26 9/9/25 5/29/147
f 31/42/148 30/41/149 34/46/150
f 28/38/151 35/49/152 31/55/153
f 30/41/154 28/61/155 34/46/156
f 14/14/157 13/13/158 21/67/159
f 15/51/160 27/65/161 13/68/162
f 1/1/1 3/3/3 37/69/163
f 4/4/164 6/6/165 38/70/166
f 39/71/167 8/8/168 4/4/169
f 6/6/170 1/1/171 40/72/172
f 41/73/173 12/12/174 11/11/175
f 42/74/176 43/75/177 44/76/178
f 45/77/179 39/71/180 46/78/181
f 47/79/182 19/19/183 8/8/184
f 40/72/185 41/73/186 20/20/187
f 37/80/188 3/22/30 12/12/29
f 37/80/189 12/12/190 41/73/191
f 38/70/192 42/81/193 48/82/194
f 37/69/195 40/72/196 1/1/197
f 44/76/198 49/83/199 50/84/200
f 11/11/201 20/20/202 41/73/203
f 44/76/204 46/85/205 48/86/206
f 41/73/207 40/72/208 37/80/209
f 38/87/210 20/20/211 24/30/212
f 42/88/213 24/33/57 51/89/214
f 26/34/215 19/90/216 47/91/217
f 52/92/218 53/93/219 45/77/220
f 42/94/221 51/95/222 54/96/223
f 55/97/224 56/98/225 57/99/226
f 56/100/227 54/96/228 51/95/229
f 24/30/230 42/94/231 38/87/232
f 56/100/233 33/45/234 26/34/235
f 54/96/236 53/93/219 52/92/218
f 58/101/237 57/99/238 53/102/239
f 54/103/240 56/98/241 55/97/242
f 47/91/243 59/104/244 26/34/245
f 50/84/200 60/105/246 44/76/198
f 43/106/247 60/107/248 50/108/249
f 46/109/250 52/92/251 45/77/252
f 59/104/253 57/110/254 26/34/255
f 45/111/256 59/112/257 47/113/258
f 47/113/258 39/114/259 45/111/256
f 59/104/260 45/77/220 53/93/219
f 8/8/261 39/71/262 47/79/263
f 4/4/264 48/82/265 46/78/266
f 53/115/267 54/116/268 55/97/269
f 4/4/264 46/78/266 39/71/270
f 60/105/271 52/117/272 46/85/273
f 52/118/274 60/107/275 43/106/276
f 49/83/277 44/76/278 43/75/279
f 50/108/280 49/119/281 43/106/282
f 51/95/283 24/30/284 56/100/285
f 24/30/286 33/45/287 56/100/288
f 52/92/289 42/94/290 54/96/291
f 46/85/292 44/76/293 60/105/294
f 26/34/295 57/110/296 56/100/297
f 38/70/298 48/82/299 4/4/300
f 40/72/301 38/70/302 6/6/303
f 20/20/187 38/87/304 40/72/185
f 57/99/305 58/101/306 55/97/307
f 53/93/308 57/110/309 59/104/310
f 55/97/311 58/101/312 53/115/313
f 44/76/314 48/120/315 42/74/316
f 43/106/317 42/121/318 52/118/319
